<svg xmlns="http://www.w3.org/2000/svg" viewBox="369 219 4266 2802">
	<path d="m370 1620 0-1400 423 0c232 0 473 5 536 11 551 51 881 389 993 1017 30 169 32 533 5 712-99 640-438 1002-984 1049-65 6-310 11-545 11l-428 0 0-1400zm922 859c84-18 182-75 239-138 137-153 197-414 186-799-8-272-46-431-139-579-49-78-104-128-182-164-83-39-145-49-302-49l-134 0 0 870 0 870 140 0c76 0 163-5 192-11zm1438-859 0-1400 305 0 305 0 0 565 0 565 345 0 345 0 0-565 0-565 300 0 300 0 2 953c2 523 2 1107 1 1297-1 190-3 391-3 448l0 102-300 0-300 0-2-572-3-573-342-3-343-2 0 575 0 575-305 0-305 0 0-1400z" stroke="#ffd700" stroke-width="5" fill="none"/>
</svg>