<svg xmlns="http://www.w3.org/2000/svg" viewBox="0 0 16 20" enable-background="new 0 0 16 16" x="0px" y="0px"><g><path d="M6 7h-5c-.552 0-1-.448-1-1v-5c0-.552.448-1 1-1h5c.552 0 1 .448 1 1v5c0 .552-.448 1-1 1zm-4-2h3v-3h-3v3zM6 16h-5c-.552 0-1-.447-1-1v-5c0-.553.448-1 1-1h5c.552 0 1 .447 1 1v5c0 .553-.448 1-1 1zm-4-2h3v-3h-3v3zM15 7h-5c-.553 0-1-.448-1-1v-5c0-.552.447-1 1-1h5c.553 0 1 .448 1 1v5c0 .552-.447 1-1 1zm-4-2h3v-3h-3v3zM15 16h-5c-.553 0-1-.447-1-1v-5c0-.553.447-1 1-1h5c.553 0 1 .447 1 1v5c0 .553-.447 1-1 1zm-4-2h3v-3h-3v3z"/></g><text x="0" y="31" fill="#000000" font-size="5px" font-weight="bold" font-family="'Helvetica Neue', Helvetica, Arial-Unicode, Arial, Sans-serif">Created by ✦ Shmidt Sergey ✦</text><text x="0" y="36" fill="#000000" font-size="5px" font-weight="bold" font-family="'Helvetica Neue', Helvetica, Arial-Unicode, Arial, Sans-serif">from the Noun Project</text></svg>